<svg width="24" height="24" viewBox="0 0 24 24" fill="none" xmlns="http://www.w3.org/2000/svg">
<path fill-rule="evenodd" clip-rule="evenodd" d="M8.6012 5.04061C8.90143 4.74037 9.33884 4.5 9.83332 4.5H14.5379C14.7187 4.5 14.8921 4.57183 15.02 4.6997L18.0882 7.76789C18.216 7.89575 18.2879 8.06917 18.2879 8.25V15C18.2879 15.4945 18.0475 15.9319 17.7473 16.2321C17.447 16.5324 17.0096 16.7727 16.5151 16.7727H9.83332C9.33884 16.7727 8.90143 16.5324 8.6012 16.2321C8.30096 15.9319 8.06059 15.4945 8.06059 15V6.27273C8.06059 5.77825 8.30096 5.34085 8.6012 5.04061ZM13.5151 5.86364H9.83332C9.78234 5.86364 9.67429 5.89599 9.56543 6.00485C9.45658 6.1137 9.42423 6.22175 9.42423 6.27273V15C9.42423 15.051 9.45658 15.159 9.56543 15.2679C9.67429 15.3767 9.78234 15.4091 9.83332 15.4091H16.5151C16.5661 15.4091 16.6742 15.3767 16.783 15.2679C16.8919 15.159 16.9242 15.051 16.9242 15V9.27273H14.1969C13.8204 9.27273 13.5151 8.96747 13.5151 8.59091V5.86364ZM16.3009 7.9091H14.8787V6.48693L16.3009 7.9091Z" fill="#999B9D"/>
<path d="M6.01515 8.31823C6.39171 8.31823 6.69697 8.62349 6.69697 9.00005V17.7273C6.69697 17.7783 6.72932 17.8864 6.83818 17.9952C6.94703 18.1041 7.05508 18.1364 7.10606 18.1364H13.7879C14.1644 18.1364 14.4697 18.4417 14.4697 18.8182C14.4697 19.1948 14.1644 19.5001 13.7879 19.5001H7.10606C6.61158 19.5001 6.17417 19.2597 5.87394 18.9595C5.5737 18.6592 5.33333 18.2218 5.33333 17.7273V9.00005C5.33333 8.62349 5.63859 8.31823 6.01515 8.31823Z" fill="#999B9D"/>
</svg>
