<svg width="24" height="24" viewBox="0 0 24 24" fill="none" xmlns="http://www.w3.org/2000/svg">
<path fill-rule="evenodd" clip-rule="evenodd" d="M17.6226 6.07905C17.4565 5.9365 17.2438 5.85988 17.025 5.86375L17.013 5.86386H15.8743V12.0001H17.013L17.025 12.0002C17.2438 12.0041 17.4565 11.9275 17.6226 11.7849C17.7786 11.651 17.8834 11.4675 17.9198 11.2659V6.59807C17.8834 6.39645 17.7786 6.21301 17.6226 6.07905ZM14.5107 12.5372L12.0509 18.0719C11.8454 18.0063 11.6564 17.8923 11.5011 17.737C11.2454 17.4813 11.1017 17.1344 11.1017 16.7728V14.0455C11.1017 13.669 10.7964 13.3637 10.4199 13.3637H6.56086L6.55314 13.3638C6.45431 13.3649 6.35642 13.3445 6.26625 13.304C6.17607 13.2636 6.09578 13.204 6.03093 13.1294C5.96607 13.0548 5.91821 12.967 5.89065 12.8721C5.86313 12.7773 5.85652 12.6777 5.87128 12.5801C5.87126 12.5802 5.87129 12.58 5.87128 12.5801L6.81224 6.44335C6.8369 6.28077 6.91948 6.13258 7.04477 6.02608C7.17006 5.91959 7.32962 5.86196 7.49405 5.86382L14.5107 5.86386V12.5372ZM17.0075 4.50025C17.5581 4.49211 18.0928 4.68558 18.5107 5.04434C18.9303 5.40453 19.2031 5.90626 19.2772 6.45428C19.2813 6.48457 19.2834 6.5151 19.2834 6.54567V11.3183C19.2834 11.3489 19.2813 11.3794 19.2772 11.4097C19.2031 11.9577 18.9303 12.4594 18.5107 12.8196C18.0928 13.1784 17.5581 13.3719 17.0075 13.3637H15.6356L13.0884 19.0951C12.9789 19.3413 12.7348 19.5 12.4653 19.5C11.742 19.5 11.0483 19.2127 10.5369 18.7012C10.0254 18.1898 9.73808 17.4961 9.73808 16.7728V14.7274H6.56435C6.2693 14.7301 5.97713 14.6689 5.7079 14.5481C5.43738 14.4267 5.1965 14.2479 5.00194 14.0242C4.80737 13.8004 4.66378 13.5371 4.58111 13.2523C4.49844 12.9675 4.47867 12.6682 4.52316 12.3751L5.46404 6.2389C5.46401 6.2391 5.46407 6.23869 5.46404 6.2389C5.53812 5.7514 5.78591 5.30645 6.16163 4.98709C6.53642 4.66852 7.01344 4.49571 7.50522 4.50025H17.0075Z" fill="#2767E4"/>
</svg>
