<svg width="24" height="24" viewBox="0 0 24 24" fill="none" xmlns="http://www.w3.org/2000/svg">
<g clip-path="url(#clip0_2873_31693)">
<path d="M18.8264 17.3991C18.9203 17.4516 19.0007 17.5251 19.0615 17.6139C19.1222 17.7027 19.1615 17.8044 19.1764 17.9109C19.1764 18.1264 19.0954 18.3418 18.9073 18.4763C18.8174 18.5398 18.7112 18.5761 18.6013 18.5809C18.4914 18.5857 18.3824 18.5589 18.2873 18.5036L15.7291 17.2646C15.6236 17.2126 15.5349 17.132 15.473 17.032C15.4111 16.932 15.3786 16.8167 15.3791 16.6991V13.8173C15.3779 13.7356 15.3931 13.6545 15.4238 13.5788C15.4546 13.5032 15.5002 13.4344 15.5581 13.3768C15.6159 13.3191 15.6848 13.2736 15.7605 13.2431C15.8363 13.2126 15.9174 13.1976 15.9991 13.1991C16.0806 13.1979 16.1615 13.213 16.2371 13.2437C16.3127 13.2743 16.3813 13.3198 16.4389 13.3774C16.4966 13.4351 16.5421 13.5037 16.5727 13.5793C16.6034 13.6548 16.6185 13.7358 16.6173 13.8173V16.3218L18.8264 17.3991ZM6.43906 10.6673C6.25129 10.6643 6.06915 10.7314 5.92816 10.8555C5.79271 10.9637 5.73906 11.1518 5.73906 11.3137C5.73906 11.5018 5.79361 11.6637 5.92816 11.7709C5.99152 11.8341 6.06728 11.8836 6.15066 11.9161C6.23405 11.9487 6.32327 11.9636 6.41271 11.96H9.18542C9.37452 11.96 9.56271 11.9055 9.67089 11.7709C9.73143 11.7113 9.77931 11.6401 9.81164 11.5615C9.84397 11.4829 9.8601 11.3986 9.85906 11.3136C9.85906 11.1518 9.80452 10.9636 9.67089 10.8555C9.54002 10.732 9.36618 10.6645 9.18632 10.6673H6.43906ZM6.41179 7.46274C6.29479 7.46597 6.18023 7.4969 6.07751 7.553C5.97479 7.6091 5.88685 7.68876 5.82089 7.78545C5.68542 7.97455 5.68542 8.21637 5.82089 8.43182C5.88003 8.53495 5.9665 8.61974 6.07077 8.67685C6.17503 8.73396 6.29305 8.76116 6.41179 8.75545H14.4372C14.6254 8.75545 14.7872 8.70092 14.9218 8.56637C15.0563 8.45908 15.11 8.27092 15.11 8.10908C15.1137 8.01971 15.0989 7.93054 15.0665 7.84716C15.0341 7.76378 14.9849 7.68799 14.9218 7.62455C14.8584 7.56133 14.7827 7.51189 14.6993 7.47934C14.6159 7.4468 14.5267 7.43186 14.4372 7.43545L6.41271 7.46274H6.41179ZM20.0118 20.0109C20.9536 19.0682 21.4382 17.9109 21.4654 16.5109C21.4382 15.0564 20.9536 13.8982 20.0109 12.9564C19.0682 12.0136 17.9109 11.5291 16.4836 11.4745C15.0291 11.5291 13.8718 12.0136 12.9563 12.9564C12.0136 13.8982 11.5291 15.0564 11.4745 16.4836C11.5291 17.9109 12.0136 19.0682 12.9563 20.0109C13.8981 20.9536 15.0563 21.4382 16.4836 21.4655C17.9109 21.4382 19.0682 20.9536 20.0109 20.0109H20.0118ZM20.8727 12.0673C22.0572 13.2518 22.65 14.7064 22.7036 16.4836C22.65 18.2336 22.0582 19.7146 20.8727 20.9C19.6881 22.0846 18.2336 22.6773 16.4563 22.7309C15.0018 22.7036 13.7372 22.2727 12.6863 21.4918H4.60908C3.90908 21.4918 3.34273 20.9 3.34273 20.2V4.66364C3.34273 3.93637 3.90816 3.34364 4.60816 3.34364H17.6682C18.3954 3.34364 18.9609 3.93637 18.9609 4.66274V10.7755C19.6882 11.0718 20.3336 11.53 20.8727 12.0682L20.8727 12.0673Z" fill="white"/>
</g>
<defs>
<clipPath id="clip0_2873_31693">
<rect width="20" height="20" fill="white" transform="translate(3 3)"/>
</clipPath>
</defs>
</svg>
