<svg width="24" height="24" viewBox="0 0 24 24" fill="none" xmlns="http://www.w3.org/2000/svg">
<path fill-rule="evenodd" clip-rule="evenodd" d="M10.6951 4.9049C10.8045 4.65868 11.0487 4.5 11.3181 4.5C12.0415 4.5 12.7351 4.78734 13.2466 5.2988C13.7581 5.81026 14.0454 6.50394 14.0454 7.22726V9.2727H17.2192C17.5142 9.26997 17.8064 9.33111 18.0756 9.45194C18.3461 9.57335 18.587 9.75213 18.7816 9.97588C18.9762 10.1996 19.1198 10.463 19.2024 10.7478C19.2851 11.0325 19.3049 11.3318 19.2604 11.625L18.3195 17.7612C18.2454 18.2488 17.9976 18.6937 17.6219 19.0131C17.2471 19.3317 16.77 19.5045 16.2782 19.4999H6.54544C6.00296 19.4999 5.48269 19.2844 5.0991 18.9008C4.7155 18.5172 4.5 17.997 4.5 17.4545V12.6818C4.5 12.1393 4.7155 11.619 5.0991 11.2354C5.48269 10.8518 6.00296 10.6363 6.54544 10.6363H8.14779L10.6951 4.9049ZM9.2727 11.4628L11.7326 5.92813C11.9381 5.99368 12.127 6.10768 12.2824 6.26303C12.5381 6.51876 12.6818 6.8656 12.6818 7.22726V9.95451C12.6818 10.3311 12.987 10.6363 13.3636 10.6363H17.2227L17.2304 10.6363C17.3292 10.6352 17.4271 10.6555 17.5173 10.696C17.6074 10.7365 17.6877 10.7961 17.7526 10.8707C17.8175 10.9452 17.8653 11.033 17.8929 11.128C17.9204 11.2228 17.927 11.3225 17.9122 11.4201L16.9713 17.5568C16.9466 17.7194 16.864 17.8676 16.7387 17.9741C16.6134 18.0806 16.4539 18.1382 16.2895 18.1363L9.2727 18.1363V11.4628ZM7.90907 18.1363V12H6.54544C6.36461 12 6.19119 12.0718 6.06333 12.1997C5.93546 12.3275 5.86363 12.5009 5.86363 12.6818V17.4545C5.86363 17.6353 5.93546 17.8087 6.06333 17.9366C6.19119 18.0645 6.36461 18.1363 6.54544 18.1363H7.90907Z" fill="#999B9D"/>
</svg>
