<svg width="48" height="46" viewBox="0 0 48 46" fill="none" xmlns="http://www.w3.org/2000/svg">
<path d="M47.9997 6.20007C47.9997 9.22974 45.5437 11.6858 42.514 11.6858C41.3144 11.6858 38.3718 11.6858 37.3693 11.6858C37.1799 11.6858 37.0283 11.5339 37.0283 11.3445C37.0283 10.358 37.0283 7.49073 37.0283 6.20007C37.0283 3.17039 39.4844 0.714355 42.514 0.714355C45.5437 0.714355 47.9997 3.17039 47.9997 6.20007Z" fill="#356BFD"/>
<rect y="2.77148" width="8.22857" height="42.5143" rx="0.342857" fill="white"/>
<path d="M8.22852 19.2286H18.5142L26.136 2.96882C26.1925 2.8484 26.3135 2.77148 26.4465 2.77148H33.7514C34.0012 2.77148 34.1671 3.03009 34.063 3.25719L30.5142 11.0001L28.3846 15.5787C27.5604 17.3508 26.001 18.6728 24.1179 19.1959C24.0992 19.2011 24.103 19.2286 24.1224 19.2286H28.7999C33.3445 19.2286 37.0285 22.9127 37.0285 27.4572V44.9429C37.0285 45.1323 36.875 45.2858 36.6857 45.2858H29.1428C28.9534 45.2858 28.7999 45.1323 28.7999 44.9429V22.3378C28.7999 22.2619 28.6899 22.2523 28.6767 22.327C28.1531 25.2941 25.5749 27.4572 22.5619 27.4572H18.5142H8.22852V19.2286Z" fill="white"/>
</svg>
