<svg width="24" height="25" viewBox="0 0 24 25" fill="none" xmlns="http://www.w3.org/2000/svg">
<path d="M18.3154 12.5167C18.3154 12.3597 18.3777 12.2091 18.4888 12.0981C18.5998 11.9871 18.7504 11.9247 18.9074 11.9247C19.0644 11.9247 19.215 11.9871 19.326 12.0981C19.437 12.2091 19.4994 12.3597 19.4994 12.5167V17.4501C19.4994 18.6489 18.5275 19.6208 17.3287 19.6208H6.67263C5.47383 19.6208 4.50195 18.6489 4.50195 17.4501V7.38602C4.50195 6.18721 5.47383 5.21534 6.67263 5.21534H11.8033C11.9603 5.21534 12.1109 5.27771 12.2219 5.38873C12.333 5.49976 12.3953 5.65033 12.3953 5.80734C12.3953 5.96435 12.333 6.11493 12.2219 6.22595C12.1109 6.33698 11.9603 6.39935 11.8033 6.39935H6.67263C6.41095 6.39935 6.15999 6.5033 5.97495 6.68834C5.78991 6.87337 5.68596 7.12434 5.68596 7.38602V17.4501C5.68596 17.7118 5.78991 17.9627 5.97495 18.1478C6.15999 18.3328 6.41095 18.4368 6.67263 18.4368H17.3287C17.5904 18.4368 17.8413 18.3328 18.0264 18.1478C18.2114 17.9627 18.3154 17.7118 18.3154 17.4501V12.5167ZM17.5373 7.38602L15.8761 5.62106C15.7685 5.5067 15.7108 5.35429 15.7155 5.19734C15.7203 5.04039 15.7872 4.89177 15.9016 4.78416C16.0159 4.67656 16.1684 4.61879 16.3253 4.62357C16.4822 4.62834 16.6309 4.69526 16.7385 4.80962L19.3386 7.5723C19.6942 7.95 19.4262 8.57003 18.9074 8.57003H15.9357C14.4247 8.57003 13.1847 9.88743 13.1847 11.53V15.0821C13.1847 15.2391 13.1223 15.3897 13.0113 15.5007C12.9003 15.6117 12.7497 15.6741 12.5927 15.6741C12.4357 15.6741 12.2851 15.6117 12.1741 15.5007C12.063 15.3897 12.0007 15.2391 12.0007 15.0821V11.53C12.0007 9.24906 13.7542 7.38602 15.9357 7.38602H17.5373Z" fill="#999B9D" stroke="#999B9D" stroke-width="0.2"/>
</svg>
