<svg width="24" height="24" viewBox="0 0 24 24" fill="none" xmlns="http://www.w3.org/2000/svg">
<path fill-rule="evenodd" clip-rule="evenodd" d="M17.7406 21.5671H6.25907C5.01315 21.5671 3.99976 20.5535 3.99976 19.3077V4.69291C3.99976 3.44699 5.01335 2.43359 6.25907 2.43359H14.6555C15.4549 2.43359 16.2166 2.77768 16.7451 3.37747L19.3046 6.2821C19.7529 6.79068 20.0001 7.44537 19.9999 8.12331V19.3077C19.9999 20.5537 18.9864 21.5671 17.7406 21.5671ZM6.25907 3.93174C5.83932 3.93174 5.4979 4.27316 5.4979 4.69291V19.3077C5.4979 19.7275 5.83932 20.0689 6.25907 20.0689H17.7406C18.1604 20.0689 18.5018 19.7275 18.5018 19.3077V8.89504H16.2044C14.9585 8.89504 13.9451 7.88145 13.9451 6.63573V3.93174H6.25907ZM18.1805 7.27253C18.2154 7.31217 18.2476 7.35372 18.2772 7.3969H16.2044C15.7846 7.3969 15.4432 7.05548 15.4432 6.63573V4.20115C15.5074 4.25085 15.567 4.30665 15.621 4.3679L18.1805 7.27253ZM10.018 14.0893C9.72559 14.3819 9.2513 14.3819 8.95868 14.0893C8.66606 13.7969 8.66606 13.3226 8.95868 13.03L11.4626 10.526C11.6107 10.3778 11.8057 10.3048 11.9999 10.3068C12.1941 10.3048 12.3889 10.3778 12.5371 10.526L15.0411 13.03C15.3337 13.3224 15.3337 13.7967 15.0411 14.0893C14.7487 14.3819 14.2744 14.3819 13.9818 14.0893L12.7565 12.8641V16.4507C12.7565 16.8643 12.4213 17.1998 12.0075 17.1998C11.5939 17.1998 11.2584 16.8645 11.2584 16.4507V12.8489L10.018 14.0893Z" fill="#D2D3D4"/>
</svg>
