<svg width="24" height="24" viewBox="0 0 24 24" fill="none" xmlns="http://www.w3.org/2000/svg">
<g clip-path="url(#clip0_2493_33034)">
<path d="M12 18C13.5908 17.9982 15.1158 17.3655 16.2407 16.2407C17.3655 15.1158 17.9982 13.5908 18 12V9C18 7.4087 17.3679 5.88258 16.2426 4.75736C15.1174 3.63214 13.5913 3 12 3C10.4087 3 8.88258 3.63214 7.75736 4.75736C6.63214 5.88258 6 7.4087 6 9V12C6.00179 13.5908 6.6345 15.1158 7.75933 16.2407C8.88416 17.3655 10.4092 17.9982 12 18ZM12 4.5C13.0624 4.50197 14.0899 4.8794 14.901 5.5656C15.7121 6.2518 16.2545 7.20259 16.4325 8.25H14.25C14.0511 8.25 13.8603 8.32902 13.7197 8.46967C13.579 8.61032 13.5 8.80109 13.5 9C13.5 9.19891 13.579 9.38968 13.7197 9.53033C13.8603 9.67098 14.0511 9.75 14.25 9.75H16.5V11.25H14.25C14.0511 11.25 13.8603 11.329 13.7197 11.4697C13.579 11.6103 13.5 11.8011 13.5 12C13.5 12.1989 13.579 12.3897 13.7197 12.5303C13.8603 12.671 14.0511 12.75 14.25 12.75H16.4325C16.2562 13.7981 15.7142 14.7499 14.9028 15.4363C14.0913 16.1227 13.0628 16.4993 12 16.4993C10.9372 16.4993 9.90871 16.1227 9.09723 15.4363C8.28576 14.7499 7.74378 13.7981 7.5675 12.75H9.75C9.94891 12.75 10.1397 12.671 10.2803 12.5303C10.421 12.3897 10.5 12.1989 10.5 12C10.5 11.8011 10.421 11.6103 10.2803 11.4697C10.1397 11.329 9.94891 11.25 9.75 11.25H7.5V9.75H9.75C9.94891 9.75 10.1397 9.67098 10.2803 9.53033C10.421 9.38968 10.5 9.19891 10.5 9C10.5 8.80109 10.421 8.61032 10.2803 8.46967C10.1397 8.32902 9.94891 8.25 9.75 8.25H7.5675C7.74545 7.20259 8.28789 6.2518 9.09898 5.5656C9.91006 4.8794 10.9376 4.50197 12 4.5Z" fill="#D2D3D4"/>
<path d="M20.25 12C20.0511 12 19.8603 12.079 19.7197 12.2197C19.579 12.3603 19.5 12.5511 19.5 12.75C19.498 14.5396 18.7862 16.2553 17.5208 17.5208C16.2553 18.7862 14.5396 19.498 12.75 19.5H11.25C9.46046 19.4978 7.74484 18.786 6.47944 17.5206C5.21404 16.2552 4.50218 14.5395 4.5 12.75C4.5 12.5511 4.42098 12.3603 4.28033 12.2197C4.13968 12.079 3.94891 12 3.75 12C3.55109 12 3.36032 12.079 3.21967 12.2197C3.07902 12.3603 3 12.5511 3 12.75C3.00258 14.9372 3.8726 17.0342 5.41922 18.5808C6.96584 20.1274 9.06276 20.9974 11.25 21H12.75C14.9372 20.9974 17.0342 20.1274 18.5808 18.5808C20.1274 17.0342 20.9974 14.9372 21 12.75C21 12.5511 20.921 12.3603 20.7803 12.2197C20.6397 12.079 20.4489 12 20.25 12Z" fill="#D2D3D4"/>
</g>
<defs>
<clipPath id="clip0_2493_33034">
<rect width="18" height="18" fill="white" transform="translate(3 3)"/>
</clipPath>
</defs>
</svg>
