<svg width="25" height="24" viewBox="0 0 25 24" fill="none" xmlns="http://www.w3.org/2000/svg">
<path fill-rule="evenodd" clip-rule="evenodd" d="M8.42144 3.64873C8.78173 3.28845 9.30661 3 9.89999 3H15.5454C15.7624 3 15.9706 3.0862 16.124 3.23964L19.8058 6.92146C19.9593 7.0749 20.0455 7.28301 20.0455 7.5V15.6C20.0455 16.1934 19.757 16.7183 19.3967 17.0786C19.0364 17.4388 18.5115 17.7273 17.9182 17.7273H9.89999C9.30661 17.7273 8.78173 17.4388 8.42144 17.0786C8.06116 16.7183 7.77271 16.1934 7.77271 15.6V5.12727C7.77271 4.5339 8.06116 4.00901 8.42144 3.64873ZM14.3181 4.63637H9.89999C9.83881 4.63637 9.70915 4.67519 9.57853 4.80582C9.4479 4.93644 9.40908 5.0661 9.40908 5.12727V15.6C9.40908 15.6612 9.4479 15.7908 9.57853 15.9215C9.70915 16.0521 9.83881 16.0909 9.89999 16.0909H17.9182C17.9794 16.0909 18.109 16.0521 18.2396 15.9215C18.3703 15.7908 18.4091 15.6612 18.4091 15.6V8.72728H15.1363C14.6844 8.72728 14.3181 8.36097 14.3181 7.9091V4.63637ZM17.6611 7.09091H15.9545V5.38432L17.6611 7.09091Z" fill="#F5F9FF" fill-opacity="0.95"/>
<path d="M5.31818 7.58188C5.77005 7.58188 6.13637 7.94819 6.13637 8.40006V18.8728C6.13637 18.934 6.17519 19.0636 6.30582 19.1943C6.43644 19.3249 6.5661 19.3637 6.62727 19.3637H14.6455C15.0973 19.3637 15.4636 19.73 15.4636 20.1819C15.4636 20.6338 15.0973 21.0001 14.6455 21.0001H6.62727C6.0339 21.0001 5.50901 20.7116 5.14873 20.3513C4.78845 19.9911 4.5 19.4662 4.5 18.8728V8.40006C4.5 7.94819 4.86631 7.58188 5.31818 7.58188Z" fill="#F5F9FF" fill-opacity="0.95"/>
</svg>
