<svg width="25" height="24" viewBox="0 0 25 24" fill="none" xmlns="http://www.w3.org/2000/svg">
<path d="M22 12.8983V17.4857C22 18.8743 20.8303 20 19.3875 20H5.6125C4.16969 20 3 18.8743 3 17.4857V6.51429C3 5.12571 4.16969 4 5.6125 4H19.3875C20.8303 4 22 5.12571 22 6.51429V12.8983ZM20.575 11.2992V6.51429C20.575 6.3642 20.5443 6.21559 20.4846 6.07693C20.4249 5.93828 20.3375 5.81229 20.2272 5.70616C20.1169 5.60004 19.986 5.51586 19.8419 5.45842C19.6979 5.40099 19.5434 5.37143 19.3875 5.37143H5.6125C5.45656 5.37143 5.30214 5.40099 5.15806 5.45842C5.01399 5.51586 4.88308 5.60004 4.77281 5.70616C4.66254 5.81229 4.57507 5.93828 4.51539 6.07693C4.45572 6.21559 4.425 6.3642 4.425 6.51429V13.896C4.73951 13.8511 5.05704 13.8285 5.375 13.8286C6.86474 13.8265 8.30839 14.3256 9.4562 15.2395C10.6081 12.3511 13.4999 10.4 16.775 10.4C18.238 10.4 19.6027 10.7595 20.575 11.2992ZM20.575 13.0615C20.4563 12.8832 20.1045 12.5975 19.6031 12.3561C18.8405 11.989 17.867 11.7714 16.775 11.7714C14.0637 11.7714 11.6733 13.4057 10.7537 15.8149C10.6929 15.9744 10.5888 16.2503 10.4421 16.6416C10.2711 17.0981 9.67494 17.2439 9.29826 16.9214C8.93227 16.6078 8.66247 16.3842 8.49361 16.2539C7.60974 15.57 6.50913 15.198 5.375 15.2C5.05295 15.2 4.73541 15.2293 4.425 15.2869V17.4857C4.425 17.6358 4.45572 17.7844 4.51539 17.9231C4.57507 18.0617 4.66254 18.1877 4.77281 18.2938C4.88308 18.4 5.01399 18.4841 5.15806 18.5416C5.30214 18.599 5.45656 18.6286 5.6125 18.6286H19.3875C19.5434 18.6286 19.6979 18.599 19.8419 18.5416C19.986 18.4841 20.1169 18.4 20.2272 18.2938C20.3375 18.1877 20.4249 18.0617 20.4846 17.9231C20.5443 17.7844 20.575 17.6358 20.575 17.4857V13.0613V13.0615ZM8.225 11.3143C7.6581 11.3143 7.11442 11.0976 6.71356 10.7118C6.3127 10.326 6.0875 9.80273 6.0875 9.25714C6.0875 8.71155 6.3127 8.18831 6.71356 7.80252C7.11442 7.41673 7.6581 7.2 8.225 7.2C8.7919 7.2 9.33558 7.41673 9.73644 7.80252C10.1373 8.18831 10.3625 8.71155 10.3625 9.25714C10.3625 9.80273 10.1373 10.326 9.73644 10.7118C9.33558 11.0976 8.7919 11.3143 8.225 11.3143ZM8.225 9.94286C8.41397 9.94286 8.59519 9.87061 8.72881 9.74202C8.86243 9.61342 8.9375 9.43901 8.9375 9.25714C8.9375 9.07528 8.86243 8.90087 8.72881 8.77227C8.59519 8.64367 8.41397 8.57143 8.225 8.57143C8.03603 8.57143 7.85481 8.64367 7.72119 8.77227C7.58757 8.90087 7.5125 9.07528 7.5125 9.25714C7.5125 9.43901 7.58757 9.61342 7.72119 9.74202C7.85481 9.87061 8.03603 9.94286 8.225 9.94286Z" fill="#F5F9FF" fill-opacity="0.95"/>
</svg>
