<svg width="25" height="24" viewBox="0 0 25 24" fill="none" xmlns="http://www.w3.org/2000/svg">
<path fill-rule="evenodd" clip-rule="evenodd" d="M16.6085 3.00019C15.3147 2.98894 14.0682 3.4863 13.1376 4.38515L13.1291 4.39347L11.7146 5.79978C11.3925 6.12001 11.391 6.64072 11.7112 6.96282C12.0314 7.28492 12.5521 7.28644 12.8742 6.96621L14.2843 5.56433C14.9043 4.96756 15.7335 4.63745 16.5942 4.64493C17.4567 4.65242 18.2818 4.99839 18.8917 5.6083C19.5016 6.21822 19.8476 7.0433 19.8551 7.90582C19.8625 8.7661 19.5327 9.59497 18.9365 10.2149L16.4746 12.6767L16.4745 12.6768C16.141 13.0105 15.7396 13.2684 15.2977 13.4333C14.8557 13.5982 14.3835 13.6661 13.913 13.6324C13.4425 13.5987 12.9847 13.4642 12.5707 13.238C12.1568 13.0118 11.7963 12.6993 11.5138 12.3216C11.2417 11.9579 10.7263 11.8836 10.3626 12.1556C9.99889 12.4277 9.9246 12.9431 10.1967 13.3068C10.6205 13.8734 11.1612 14.3422 11.7821 14.6814C12.4031 15.0207 13.0897 15.2224 13.7955 15.273C14.5012 15.3235 15.2096 15.2217 15.8725 14.9744C16.5355 14.7271 17.1375 14.3401 17.6377 13.8397L20.1048 11.3726L20.1149 11.3624C21.0137 10.4318 21.5111 9.18531 21.4998 7.89153C21.4886 6.59774 20.9696 5.36013 20.0547 4.44525C19.1399 3.53038 17.9023 3.01143 16.6085 3.00019ZM11.2045 8.71053C10.4988 8.65999 9.7904 8.76182 9.12745 9.00912C8.46455 9.2564 7.86248 9.64345 7.36226 10.1438L4.89516 12.6109L4.88515 12.6211C3.9863 13.5517 3.48894 14.7982 3.50019 16.092C3.51143 17.3858 4.03038 18.6234 4.94525 19.5382C5.86013 20.4531 7.09774 20.9721 8.39153 20.9833C9.68531 20.9946 10.9318 20.4972 11.8624 19.5984L11.8726 19.5883L13.2789 18.182C13.6001 17.8609 13.6001 17.3401 13.2789 17.019C12.9577 16.6978 12.437 16.6978 12.1158 17.019L10.7149 18.42C10.095 19.0162 9.26609 19.3461 8.40582 19.3386C7.5433 19.3311 6.71822 18.9851 6.1083 18.3752C5.49839 17.7653 5.15242 16.9402 5.14493 16.0777C5.13745 15.2174 5.46728 14.3885 6.06355 13.7686L8.52552 11.3067C8.85901 10.973 9.26035 10.7151 9.70232 10.5502C10.1443 10.3853 10.6165 10.3174 11.087 10.3511C11.5575 10.3848 12.0153 10.5193 12.4293 10.7455C12.8432 10.9717 13.2037 11.2842 13.4862 11.6619C13.7583 12.0256 14.2737 12.0999 14.6374 11.8279C15.0011 11.5558 15.0754 11.0404 14.8033 10.6767C14.3795 10.1101 13.8388 9.64131 13.2179 9.30207C12.5969 8.96282 11.9103 8.76108 11.2045 8.71053Z" fill="white"/>
</svg>
