<svg width="24" height="24" viewBox="0 0 24 24" fill="none" xmlns="http://www.w3.org/2000/svg">
<path d="M15.8928 8.36535C16.1459 8.36535 16.3956 8.38387 16.6428 8.41074C15.9693 5.30676 12.6151 3 8.78676 3C4.50642 3 1 5.88719 1 9.55306C1 11.6688 2.16681 13.4064 4.1159 14.7542L3.33722 17.0726L6.05902 15.7216C7.03356 15.9121 7.81459 16.1085 8.78676 16.1085C9.03099 16.1085 9.27281 16.0966 9.51348 16.0775C9.36119 15.5628 9.27281 15.023 9.27281 14.4634C9.27284 11.0973 12.1941 8.36535 15.8928 8.36535ZM11.7068 6.27595C12.2932 6.27595 12.6813 6.65811 12.6813 7.23795C12.6813 7.81538 12.2932 8.20233 11.7068 8.20233C11.1228 8.20233 10.5376 7.81538 10.5376 7.23795C10.5376 6.65811 11.1228 6.27595 11.7068 6.27595ZM6.25726 8.2023C5.67323 8.2023 5.08445 7.81536 5.08445 7.23792C5.08445 6.65808 5.67323 6.27592 6.25726 6.27592C6.84064 6.27592 7.2294 6.65808 7.2294 7.23792C7.2294 7.81538 6.84064 8.2023 6.25726 8.2023ZM23 14.3708C23 11.2902 19.8847 8.77917 16.386 8.77917C12.6813 8.77917 9.76368 11.2902 9.76368 14.3708C9.76368 17.456 12.6813 19.9616 16.386 19.9616C17.1611 19.9616 17.9434 19.7693 18.722 19.5759L20.8581 20.7331L20.2722 18.8079C21.8356 17.6471 23 16.1085 23 14.3708ZM14.2387 13.4064C13.8512 13.4064 13.46 13.0249 13.46 12.6355C13.46 12.2516 13.8512 11.8652 14.2387 11.8652C14.8275 11.8652 15.2132 12.2516 15.2132 12.6355C15.2132 13.0249 14.8275 13.4064 14.2387 13.4064ZM18.5214 13.4064C18.1369 13.4064 17.7481 13.0249 17.7481 12.6355C17.7481 12.2516 18.1369 11.8652 18.5214 11.8652C19.1054 11.8652 19.4959 12.2516 19.4959 12.6355C19.4959 13.0249 19.1054 13.4064 18.5214 13.4064Z" fill="white" fill-opacity="0.88"/>
</svg>
